<svg width="1440" height="800" viewBox="0 0 1440 800" fill="none" xmlns="http://www.w3.org/2000/svg">
  <defs>
    <!-- Gradient for sky -->
    <linearGradient id="skyGradient" x1="0%" y1="0%" x2="0%" y2="100%">
      <stop offset="0%" style="stop-color:#87CEEB;stop-opacity:1" />
      <stop offset="100%" style="stop-color:#B0E0E6;stop-opacity:1" />
    </linearGradient>
    
    <!-- Gradient for hills -->
    <linearGradient id="hillGradient" x1="0%" y1="0%" x2="0%" y2="100%">
      <stop offset="0%" style="stop-color:#90EE90;stop-opacity:1" />
      <stop offset="100%" style="stop-color:#7CCD7C;stop-opacity:1" />
    </linearGradient>
    
    <!-- Filter for soft edges -->
    <filter id="softBlur">
      <feGaussianBlur in="SourceGraphic" stdDeviation="1"/>
    </filter>
  </defs>
  
  <!-- Sky Background -->
  <rect width="1440" height="500" fill="url(#skyGradient)"/>
  
  <!-- Distant Mountains (faint outlines) -->
  <path d="M 0 350 L 150 320 L 300 340 L 450 310 L 600 330 L 750 300 L 900 320 L 1050 310 L 1200 325 L 1350 300 L 1440 315 L 1440 500 L 0 500 Z" 
        fill="#B0C4DE" opacity="0.4" filter="url(#softBlur)"/>
  
  <!-- Large fluffy clouds -->
  <!-- Cloud 1 (left, white) -->
  <ellipse cx="180" cy="140" rx="100" ry="50" fill="#FFFFFF" opacity="0.95"/>
  <ellipse cx="150" cy="150" rx="80" ry="45" fill="#FFFFFF" opacity="0.95"/>
  <ellipse cx="210" cy="150" rx="90" ry="40" fill="#FFFFFF" opacity="0.95"/>
  <ellipse cx="170" cy="160" rx="70" ry="35" fill="#FFFFFF" opacity="0.95"/>
  <ellipse cx="200" cy="160" rx="75" ry="30" fill="#FFFFFF" opacity="0.95"/>
  
  <!-- Cloud 2 (center-left, pink-tinted) -->
  <ellipse cx="480" cy="110" rx="120" ry="60" fill="#FFE4E1" opacity="0.85"/>
  <ellipse cx="450" cy="120" rx="100" ry="50" fill="#FFE4E1" opacity="0.85"/>
  <ellipse cx="510" cy="120" rx="110" ry="45" fill="#FFE4E1" opacity="0.85"/>
  <ellipse cx="470" cy="130" rx="90" ry="40" fill="#FFE4E1" opacity="0.85"/>
  <ellipse cx="500" cy="130" rx="95" ry="35" fill="#FFE4E1" opacity="0.85"/>
  <ellipse cx="460" cy="140" rx="70" ry="30" fill="#FFE4E1" opacity="0.85"/>
  
  <!-- Cloud 3 (right, white) -->
  <ellipse cx="920" cy="130" rx="110" ry="55" fill="#FFFFFF" opacity="0.9"/>
  <ellipse cx="890" cy="140" rx="90" ry="45" fill="#FFFFFF" opacity="0.9"/>
  <ellipse cx="950" cy="140" rx="100" ry="40" fill="#FFFFFF" opacity="0.9"/>
  <ellipse cx="910" cy="150" rx="80" ry="35" fill="#FFFFFF" opacity="0.9"/>
  <ellipse cx="940" cy="150" rx="85" ry="30" fill="#FFFFFF" opacity="0.9"/>
  
  <!-- Ground/Hills with smooth curve -->
  <path d="M 0 500 Q 200 480 400 490 Q 600 500 800 495 Q 1000 490 1200 495 Q 1400 500 1440 495 L 1440 800 L 0 800 Z" 
        fill="url(#hillGradient)"/>
  
  <!-- Additional hill layer for depth -->
  <path d="M 0 520 Q 400 500 800 510 Q 1200 505 1440 510 L 1440 800 L 0 800 Z" 
        fill="#7CCD7C" opacity="0.6"/>
  
  <!-- Autumn trees on left (larger, leafy) -->
  <!-- Tree 1 - Orange/Yellow -->
  <path d="M 120 500 L 100 450 L 120 450 L 110 400 L 130 400 L 120 350 L 140 400 L 160 400 L 140 450 L 160 450 L 120 500 Z" 
        fill="#8B4513" stroke="#654321" stroke-width="1"/>
  <circle cx="100" cy="320" r="50" fill="#FF8C00" opacity="0.9"/>
  <circle cx="120" cy="300" r="45" fill="#FFA500" opacity="0.9"/>
  <circle cx="140" cy="320" r="48" fill="#FFD700" opacity="0.9"/>
  <circle cx="110" cy="310" r="35" fill="#FFA500" opacity="0.8"/>
  <circle cx="130" cy="310" r="38" fill="#FF8C00" opacity="0.8"/>
  
  <!-- Tree 2 - Green -->
  <path d="M 220 500 L 200 450 L 220 450 L 210 400 L 230 400 L 220 350 L 240 400 L 260 400 L 240 450 L 260 450 L 220 500 Z" 
        fill="#8B4513" stroke="#654321" stroke-width="1"/>
  <circle cx="200" cy="320" r="55" fill="#228B22" opacity="0.9"/>
  <circle cx="220" cy="300" r="50" fill="#32CD32" opacity="0.9"/>
  <circle cx="240" cy="320" r="52" fill="#228B22" opacity="0.9"/>
  <circle cx="210" cy="310" r="40" fill="#32CD32" opacity="0.8"/>
  <circle cx="230" cy="310" r="42" fill="#228B22" opacity="0.8"/>
  
  <!-- Tree 3 - Orange/Yellow -->
  <path d="M 320 500 L 300 450 L 320 450 L 310 400 L 330 400 L 320 350 L 340 400 L 360 400 L 340 450 L 360 450 L 320 500 Z" 
        fill="#8B4513" stroke="#654321" stroke-width="1"/>
  <circle cx="300" cy="320" r="48" fill="#FF8C00" opacity="0.9"/>
  <circle cx="320" cy="300" r="43" fill="#FFA500" opacity="0.9"/>
  <circle cx="340" cy="320" r="46" fill="#FFD700" opacity="0.9"/>
  <circle cx="310" cy="310" r="33" fill="#FFA500" opacity="0.8"/>
  <circle cx="330" cy="310" r="36" fill="#FF8C00" opacity="0.8"/>
  
  <!-- Tree 4 - Yellow/Green mix -->
  <path d="M 420 500 L 400 450 L 420 450 L 410 400 L 430 400 L 420 350 L 440 400 L 460 400 L 440 450 L 460 450 L 420 500 Z" 
        fill="#8B4513" stroke="#654321" stroke-width="1"/>
  <circle cx="400" cy="320" r="52" fill="#9ACD32" opacity="0.9"/>
  <circle cx="420" cy="300" r="47" fill="#ADFF2F" opacity="0.9"/>
  <circle cx="440" cy="320" r="50" fill="#9ACD32" opacity="0.9"/>
  <circle cx="410" cy="310" r="37" fill="#ADFF2F" opacity="0.8"/>
  <circle cx="430" cy="310" r="40" fill="#9ACD32" opacity="0.8"/>
  
  <!-- Center trees -->
  <!-- Tree 5 - Green -->
  <path d="M 580 500 L 560 450 L 580 450 L 570 400 L 590 400 L 580 350 L 600 400 L 620 400 L 600 450 L 620 450 L 580 500 Z" 
        fill="#8B4513" stroke="#654321" stroke-width="1"/>
  <circle cx="560" cy="320" r="42" fill="#228B22" opacity="0.9"/>
  <circle cx="580" cy="300" r="38" fill="#32CD32" opacity="0.9"/>
  <circle cx="600" cy="320" r="40" fill="#228B22" opacity="0.9"/>
  <circle cx="570" cy="310" r="30" fill="#32CD32" opacity="0.8"/>
  <circle cx="590" cy="310" r="32" fill="#228B22" opacity="0.8"/>
  
  <!-- Tree 6 - Orange -->
  <path d="M 780 500 L 760 450 L 780 450 L 770 400 L 790 400 L 780 350 L 800 400 L 820 400 L 800 450 L 820 450 L 780 500 Z" 
        fill="#8B4513" stroke="#654321" stroke-width="1"/>
  <circle cx="760" cy="320" r="45" fill="#FF8C00" opacity="0.9"/>
  <circle cx="780" cy="300" r="40" fill="#FFA500" opacity="0.9"/>
  <circle cx="800" cy="320" r="43" fill="#FF8C00" opacity="0.9"/>
  <circle cx="770" cy="310" r="32" fill="#FFA500" opacity="0.8"/>
  <circle cx="790" cy="310" r="35" fill="#FF8C00" opacity="0.8"/>
  
  <!-- Barn/House on right (rustic wooden) -->
  <!-- Barn base -->
  <rect x="1080" y="420" width="140" height="90" fill="#8B4513" stroke="#654321" stroke-width="2" rx="2"/>
  <!-- Barn roof (red) -->
  <path d="M 1080 420 L 1150 370 L 1220 420 Z" fill="#DC143C" stroke="#B22222" stroke-width="2"/>
  <!-- Barn door -->
  <rect x="1125" y="460" width="30" height="50" fill="#654321" stroke="#3D2817" stroke-width="1" rx="2"/>
  <!-- Barn windows -->
  <rect x="1100" y="440" width="18" height="18" fill="#87CEEB" stroke="#4682B4" stroke-width="1"/>
  <rect x="1182" y="440" width="18" height="18" fill="#87CEEB" stroke="#4682B4" stroke-width="1"/>
  <!-- Barn window cross -->
  <line x1="1109" y1="440" x2="1109" y2="458" stroke="#4682B4" stroke-width="1"/>
  <line x1="1100" y1="449" x2="1118" y2="449" stroke="#4682B4" stroke-width="1"/>
  <line x1="1191" y1="440" x2="1191" y2="458" stroke="#4682B4" stroke-width="1"/>
  <line x1="1182" y1="449" x2="1200" y2="449" stroke="#4682B4" stroke-width="1"/>
  
  <!-- Evergreen trees near barn (taller, conical) -->
  <!-- Tree 7 - Left of barn -->
  <path d="M 980 500 L 960 450 L 980 450 L 970 400 L 990 400 L 980 350 L 1000 400 L 1020 400 L 1000 450 L 1020 450 L 980 500 Z" 
        fill="#8B4513" stroke="#654321" stroke-width="1"/>
  <!-- Lower branches -->
  <path d="M 970 400 L 950 360 L 970 360 L 960 320 L 980 320 L 970 280 L 990 320 L 1010 320 L 990 360 L 1010 360 L 970 400 Z" 
        fill="#228B22" opacity="0.95"/>
  <!-- Middle branches -->
  <path d="M 960 360 L 940 330 L 960 330 L 950 300 L 970 300 L 960 270 L 980 300 L 1000 300 L 980 330 L 1000 330 L 960 360 Z" 
        fill="#32CD32" opacity="0.95"/>
  <!-- Top branches -->
  <path d="M 950 330 L 930 300 L 950 300 L 940 270 L 960 270 L 950 240 L 970 270 L 990 270 L 970 300 L 990 300 L 950 330 Z" 
        fill="#228B22" opacity="0.9"/>
  
  <!-- Tree 8 - Right of barn -->
  <path d="M 1280 500 L 1260 450 L 1280 450 L 1270 400 L 1290 400 L 1280 350 L 1300 400 L 1320 400 L 1300 450 L 1320 450 L 1280 500 Z" 
        fill="#8B4513" stroke="#654321" stroke-width="1"/>
  <!-- Lower branches -->
  <path d="M 1270 400 L 1250 360 L 1270 360 L 1260 320 L 1280 320 L 1270 280 L 1290 320 L 1310 320 L 1290 360 L 1310 360 L 1270 400 Z" 
        fill="#228B22" opacity="0.95"/>
  <!-- Middle branches -->
  <path d="M 1260 360 L 1240 330 L 1260 330 L 1250 300 L 1270 300 L 1260 270 L 1280 300 L 1300 300 L 1280 330 L 1300 330 L 1260 360 Z" 
        fill="#32CD32" opacity="0.95"/>
  <!-- Top branches -->
  <path d="M 1250 330 L 1230 300 L 1250 300 L 1240 270 L 1260 270 L 1250 240 L 1270 270 L 1290 270 L 1270 300 L 1290 300 L 1250 330 Z" 
        fill="#228B22" opacity="0.9"/>
  
  <!-- Additional small trees for depth -->
  <!-- Small tree 1 -->
  <path d="M 500 500 L 490 470 L 500 470 L 495 450 L 505 450 L 500 430 L 510 450 L 520 450 L 510 470 L 520 470 L 500 500 Z" 
        fill="#8B4513" stroke="#654321" stroke-width="0.5"/>
  <circle cx="495" cy="420" r="25" fill="#228B22" opacity="0.8"/>
  <circle cx="505" cy="410" r="22" fill="#32CD32" opacity="0.8"/>
  
  <!-- Small tree 2 -->
  <path d="M 650 500 L 640 470 L 650 470 L 645 450 L 655 450 L 650 430 L 660 450 L 670 450 L 660 470 L 670 470 L 650 500 Z" 
        fill="#8B4513" stroke="#654321" stroke-width="0.5"/>
  <circle cx="645" cy="420" r="28" fill="#FF8C00" opacity="0.8"/>
  <circle cx="655" cy="410" r="25" fill="#FFA500" opacity="0.8"/>
  
  <!-- Small tree 3 -->
  <path d="M 950 500 L 940 470 L 950 470 L 945 450 L 955 450 L 950 430 L 960 450 L 970 450 L 960 470 L 970 470 L 950 500 Z" 
        fill="#8B4513" stroke="#654321" stroke-width="0.5"/>
  <circle cx="945" cy="420" r="26" fill="#228B22" opacity="0.8"/>
  <circle cx="955" cy="410" r="23" fill="#32CD32" opacity="0.8"/>
</svg>
